<svg width="22" height="24" viewBox="0 0 22 24" fill="none" xmlns="http://www.w3.org/2000/svg">
<path fill-rule="evenodd" clip-rule="evenodd" d="M20.4286 6.96776H1.57143V20.9032C1.57143 21.3139 1.73699 21.7077 2.03169 21.9981C2.32639 22.2885 2.72609 22.4516 3.14286 22.4516H18.8571C19.2739 22.4516 19.6736 22.2885 19.9683 21.9981C20.263 21.7077 20.4286 21.3139 20.4286 20.9032V6.96776ZM0 5.41937V20.9032C0 21.7246 0.331122 22.5122 0.920522 23.093C1.50992 23.6738 2.30932 24 3.14286 24H18.8571C19.6907 24 20.4901 23.6738 21.0795 23.093C21.6689 22.5122 22 21.7246 22 20.9032V5.41937H0Z" fill="black"/>
<path d="M11 1.54839C9.95808 1.54839 8.95883 1.95622 8.22208 2.68217C7.48533 3.40811 7.07143 4.39271 7.07143 5.41936H5.5C5.5 3.98205 6.07946 2.60362 7.11091 1.58729C8.14236 0.570966 9.54131 0 11 0C12.4587 0 13.8576 0.570966 14.8891 1.58729C15.9205 2.60362 16.5 3.98205 16.5 5.41936H14.9286C14.9286 4.39271 14.5147 3.40811 13.7779 2.68217C13.0412 1.95622 12.0419 1.54839 11 1.54839V1.54839Z" fill="black"/>
</svg>
