<svg width="22" height="24" viewBox="0 0 22 24" fill="none" xmlns="http://www.w3.org/2000/svg">
<path fill-rule="evenodd" clip-rule="evenodd" d="M19.25 7.5H2.75V21C2.75 21.3978 2.89487 21.7794 3.15273 22.0607C3.41059 22.342 3.76033 22.5 4.125 22.5H17.875C18.2397 22.5 18.5894 22.342 18.8473 22.0607C19.1051 21.7794 19.25 21.3978 19.25 21V7.5ZM1.375 6V21C1.375 21.7956 1.66473 22.5587 2.18046 23.1213C2.69618 23.6839 3.39565 24 4.125 24H17.875C18.6043 24 19.3038 23.6839 19.8195 23.1213C20.3353 22.5587 20.625 21.7956 20.625 21V6H1.375Z" fill="black"/>
<path d="M11 2.25C10.0883 2.25 9.21398 2.64509 8.56932 3.34835C7.92466 4.05161 7.5625 5.00544 7.5625 6H6.1875C6.1875 4.60761 6.69453 3.27226 7.59705 2.28769C8.49957 1.30312 9.72365 0.75 11 0.75C12.2764 0.75 13.5004 1.30312 14.403 2.28769C15.3055 3.27226 15.8125 4.60761 15.8125 6H14.4375C14.4375 5.00544 14.0753 4.05161 13.4307 3.34835C12.786 2.64509 11.9117 2.25 11 2.25V2.25Z" fill="black"/>
</svg>
