<svg width="22" height="24" viewBox="0 0 22 24" fill="none" xmlns="http://www.w3.org/2000/svg">
<rect x="0.5" y="4.5" width="21" height="19" rx="1.5" stroke="black"/>
<mask id="path-2-inside-1" fill="white">
<path fill-rule="evenodd" clip-rule="evenodd" d="M16.4991 5H5.49908C5.66683 2.21144 8.06513 0 10.9991 0C13.933 0 16.3313 2.21144 16.4991 5Z"/>
</mask>
<path d="M5.49908 5L4.50089 4.93995L4.43712 6H5.49908V5ZM16.4991 5V6H17.561L17.4973 4.93995L16.4991 5ZM5.49908 6H16.4991V4H5.49908V6ZM6.49728 5.06005C6.63159 2.8274 8.56569 1 10.9991 1V-1C7.56457 -1 4.70208 1.59549 4.50089 4.93995L6.49728 5.06005ZM10.9991 1C13.4325 1 15.3666 2.82739 15.5009 5.06005L17.4973 4.93995C17.2961 1.59549 14.4336 -1 10.9991 -1V1Z" fill="black" mask="url(#path-2-inside-1)"/>
</svg>
