<?xml version="1.0" encoding="utf-8"?>
<!-- Generator: Adobe Illustrator 25.0.1, SVG Export Plug-In . SVG Version: 6.00 Build 0)  -->
<svg version="1.1" id="Logotipo" xmlns="http://www.w3.org/2000/svg" xmlns:xlink="http://www.w3.org/1999/xlink" x="0px" y="0px"
	 viewBox="0 0 841.89 595.28" style="enable-background:new 0 0 841.89 595.28;" xml:space="preserve">
<style type="text/css">
	.st0{fill:#0D0C0D;}
</style>
<g id="Home">
	<path class="st0" d="M327.02,345.24c-1.68,1.74-1.8,5.34-1.8,7.64c0,2.61,0.31,5.22,0.31,7.83c0,2.11-0.06,4.29-0.06,6.59
		c0,1.99,0,6.03,1.68,7.21c1.31,0.99,3.92,1.74,3.92,3.67c0,1.12-3.11,1.24-5.34,1.24h-1.99c-1.68,0-3.36,0.25-5.03,0.25
		c-1.37,0-3.48-0.13-3.48-1.93c0-2.8,4.85-1.99,4.85-7.02c0-1.55-0.13-3.11-0.25-4.6c-0.25-2.3-0.43-4.72-3.17-5.22
		c-0.93-0.12-1.93-0.19-2.86-0.19h-1.62c-2.3,0-9.45,0.06-10.63,0.99c-1.3,1.12-1.62,2.05-1.62,3.73c0,1.24-0.31,2.42-0.31,3.67
		c0,6.71,6.96,5.65,6.96,8.14v0.25c-0.25,1.49-1.99,1.49-3.23,1.49c-1.37,0-2.73-0.06-4.04-0.06h-1.37c-2.11,0-4.1,0.93-6.22,0.93
		c-1.24,0-3.36-0.99-3.36-2.49c0-1.99,4.91-2.55,5.53-5.9c0.25-1.37,0.31-2.73,0.31-4.1v-0.37c0-1.87-0.13-3.79-0.13-5.72
		c0-3.54,0.13-7.02,0.13-10.69c0-1.55-0.06-6.21-1.62-6.71c-1.18-0.37-3.36-0.44-3.36-2.18c0-1.8,2.8-2.86,4.29-2.86
		c1.62,0,3.11,0.81,4.72,0.81c1.43,0,2.92-0.25,4.41-0.25c1.12,0,3.05,0.31,3.05,1.8c0,3.42-5.9,1.06-5.9,7.33
		c0,8.95,2.92,9.14,10.88,9.14c3.92,0,9.26-0.06,9.32-5.28v-1.43c0-8.2-5.59-7.08-5.59-9.82c0-1.68,4.48-1.68,5.66-1.68
		c1.06,0,2.11,0.06,3.17,0.19c1.49,0.06,2.92,0.06,4.41,0.06h1.62c0.87,0,2.73,0.06,2.73,1.3
		C331.99,342.5,328.07,344.18,327.02,345.24z"/>
	<path class="st0" d="M401.29,369.54c-2.36,5.16-7.15,8.08-12.31,9.82c-1.93,0.62-3.98,1.12-6.03,1.12
		c-5.72,0-11.37-2.92-15.16-7.15c-3.11-3.54-4.85-7.46-4.85-12.24c0-8.64,2.86-16.16,11.44-19.39c3.17-1.18,6.53-2.49,9.94-2.49
		c6.9,0,10.94,3.11,15.1,8.33c2.73,3.48,4.1,7.52,4.1,11.99C403.53,362.89,402.72,366.49,401.29,369.54z M383.71,344.8
		c-8.58,0-12.43,5.53-12.43,13.61c0,8.02,2.92,16.59,12.37,16.59c8.51,0,12.37-5.59,12.37-13.67
		C396.01,353.69,392.72,344.8,383.71,344.8z"/>
	<path class="st0" d="M481.91,342.88h-0.31c-2.11,0-2.18,11.31-2.18,14.73v3.23c0,4.85,0.13,13.18,1.93,14.48
		c0.93,0.68,2.11,1.18,2.11,2.49c0,2.17-5.97,1.62-7.4,1.87c-1.06,0.19-2.11,0.5-3.17,0.5c-1.55,0-2.67-0.68-3.67-1.8
		c-0.19-0.25-0.43-0.5-0.43-0.87c0-0.5,1.49-1.24,1.86-1.55c0.37-0.25,0.68-0.62,1-0.99c1.43-1.68,1.68-3.98,1.74-6.09
		c0.13-2.8,0.25-5.59,0.43-8.39c0.19-2.36,0.43-4.72,0.43-7.08c0-0.68-0.06-1.31-0.31-1.93c-0.19-0.56-1-2.24-1.68-2.24
		c-0.87,0-1.62,2.11-1.92,2.8c-1.99,5.35-3.42,10.94-5.84,16.1c-0.62,1.3-1.12,2.67-1.49,4.1c-0.62,2.61-0.68,7.09-4.35,7.09h-0.25
		c-3.54-0.06-3.92-2.05-4.41-5.1c-0.25-1.24-0.37-2.55-0.68-3.79c-1.24-5.16-3.23-10.13-5.1-15.04c-0.31-0.81-1.49-4.6-2.42-4.6
		c-0.81,0-1,2.73-1,3.29c-0.19,2.24-0.43,4.41-0.43,6.65c0,2.67,0.37,5.34,0.81,7.95c0.37,2.55,0.5,5.16,1.87,7.4
		c0.37,0.62,0.87,1.24,0.87,1.99c0,1.86-4.16,1.92-5.84,1.92c-1.49,0-8.26-0.31-8.26-2.36c0-2.42,5.41-1.74,6.03-9.14
		c0.12-1.18,0.12-2.36,0.12-3.6v-3.67c0-2.73,0.12-5.53,0.37-8.27c0.19-1.62,0.43-3.23,0.43-4.91c0-2.17-0.5-2.73-2.42-3.6
		c-1.3-0.62-3.05-1.55-3.05-3.23c0-1.43,1.55-1.74,2.67-1.93c1.87-0.25,3.73-0.43,5.59-0.43c1.8,0,3.79,0.37,5.22,1.62
		c1.49,1.24,2.24,4.85,2.8,6.77c0.43,1.55,0.93,3.05,1.43,4.6c0.81,2.3,4.85,14.29,7.15,14.29c1.24,0,2.3-3.85,2.61-4.85
		c1.37-3.79,2.43-7.71,3.73-11.5c1.62-4.66,3.98-10.81,9.82-10.81c1.49,0,2.92,0.37,4.41,0.37c1.18,0,2.3-0.25,3.48-0.25
		c1.06,0,1.68,0.99,1.68,1.92C485.89,342.81,483.34,342.88,481.91,342.88z"/>
	<path class="st0" d="M544.49,379.05c-2.05,0.43-4.23,0.43-6.47,0.43c-3.23,0-6.46-0.06-9.69-0.06c-1.24,0-2.55,0-3.79,0.19
		c-1.49,0.19-2.98,0.44-4.54,0.44c-2.17,0-4.35-0.37-5.47-2.55c-0.12-0.19-0.19-0.37-0.19-0.62c0-0.62,2.42-1.18,2.98-1.43
		c0.62-0.37,1.18-0.87,1.68-1.43c2.24-2.8,2.36-8.08,2.36-11.56v-1.99c0-4.66-0.06-14.23-0.62-15.35c-0.31-0.62-0.5-0.81-1.12-1.12
		c-1.12-0.56-4.35-1.37-4.35-2.92c0-0.19,0.06-0.44,0.19-0.62c0.81-1.49,7.71-1.49,9.38-1.49c2.3,0,4.54,0.13,6.84,0.31
		c1.68,0.19,3.36,0.25,5.03,0.25c5.28,0,9.94,0.06,9.94,6.71c0,1.12-0.31,3.42-1.8,3.42c-0.56,0-1.12-0.37-1.49-0.75
		c-3.54-3.11-2.92-5.72-8.52-6.21c-0.62-0.06-1.24-0.06-1.92-0.06c-3.36,0-4.72,0.68-5.03,4.23c-0.12,1.3-0.19,2.67-0.19,3.98
		c0,2.36,0.19,7.33,3.48,7.33c0.19,0,0.31,0,0.5-0.06c2.55-0.37,4.23-1.68,4.97-4.22c0.19-0.56,0.25-1.18,0.5-1.8
		c0.12-0.37,0.37-0.87,0.87-0.87c1.18,0,1.43,2.86,1.55,3.73c0.31,2.86,1.06,5.66,1.06,8.52c0,0.99-0.37,3.67-1.74,3.67
		c-1.18,0-2.8-4.35-3.85-5.22c-0.87-0.75-2.18-1-3.36-1c-2.17,0-3.42,0.87-3.79,3.05c-0.31,2.11-0.68,4.35-0.68,6.46
		c0,2.92,0.93,4.66,3.92,5.41c2.17,0.56,4.47,0.87,6.77,0.87c2.8,0,5.03-0.5,6.03-3.48c0.5-1.49,1.62-5.28,3.54-5.28
		c1.06,0,1.06,4.29,1.06,5.03C548.53,376,547.72,378.36,544.49,379.05z"/>
</g>
<g id="Cotton">
	<path class="st0" d="M90.84,257.01c0,20.03,14.51,33.22,34.42,33.22c14.27,0,28.3-7.31,30.58-23.15c2.88,1.2,5.52,2.28,8.4,3.36
		c-2.4,22.19-22.31,29.86-40.18,29.86c-25.54,0-43.77-18.35-43.77-43.29c0-27.1,19.43-41.5,44.49-41.5
		c17.03,0,35.98,7.08,39.7,26.98l-8.52,3.36c-3.6-13.91-17.99-20.63-31.42-20.63C104.99,225.23,90.84,236.63,90.84,257.01z"/>
	<path class="st0" d="M201.42,258.44c0-26.1,16.79-42.7,42.22-42.7c25.55,0,42.69,16.84,42.69,41.87c0,26.1-16.91,42.7-42.34,42.7
		C218.45,300.31,201.42,283.46,201.42,258.44z M243.63,225.11c-19.43,0-32.02,12.45-32.02,32.5s12.71,33.33,32.38,33.33
		c19.43,0,32.14-12.34,32.14-32.5C276.13,238.39,263.3,225.11,243.63,225.11z"/>
	<path class="st0" d="M523.56,226.22h-37.3v74.09h-9.84v-74.09h-37.3v-10.28h84.43V226.22z"/>
	<path class="st0" d="M406.84,226.22h-37.3v74.09h-9.84v-74.09h-37.3v-10.28h84.43V226.22z"/>
	<path class="st0" d="M560.74,257.97c0-26.39,16.79-43.17,42.22-43.17c25.54,0,42.69,17.03,42.69,42.34
		c0,26.38-16.91,43.17-42.34,43.17C577.77,300.31,560.74,283.28,560.74,257.97z M602.96,224.27c-19.43,0-32.02,12.59-32.02,32.86
		s12.71,33.7,32.38,33.7c19.43,0,32.14-12.47,32.14-32.86C635.46,237.71,622.63,224.27,602.96,224.27z"/>
	<path class="st0" d="M761.6,300.31h-10.31l-59.37-68.38v68.38h-9.84v-84.37h9.96l59.72,69.15v-69.15h9.83V300.31z"/>
</g>
</svg>
