<svg width="22" height="24" viewBox="0 0 22 24" fill="none" xmlns="http://www.w3.org/2000/svg">
<path d="M8.37473 2.70142e-08C9.97682 -3.75726e-05 11.5453 0.501027 12.8941 1.44375C14.2428 2.38646 15.3153 3.73127 15.9842 5.3186C16.6531 6.90593 16.8903 8.66916 16.6678 10.3991C16.4453 12.129 15.7723 13.7531 14.7287 15.0785L22 23.0068L21.0892 24L13.8166 16.0702C12.7909 17.0266 11.5685 17.6985 10.2533 18.0287C8.93818 18.359 7.56933 18.3377 6.26334 17.9668C4.95735 17.5959 3.75293 16.8863 2.75264 15.8985C1.75235 14.9107 0.98584 13.6739 0.518387 12.2935C0.0509336 10.9131 -0.103612 9.42991 0.0679123 7.97032C0.239437 6.51074 0.731949 5.11798 1.5035 3.91066C2.27506 2.70335 3.30279 1.71724 4.49918 1.03633C5.69557 0.355425 7.02516 -0.000113155 8.37473 2.70142e-08V2.70142e-08ZM8.37473 1.40474C6.49547 1.40474 4.69318 2.21874 3.36434 3.66766C2.0355 5.11658 1.28897 7.08173 1.28897 9.13082C1.28897 11.1799 2.0355 13.1451 3.36434 14.594C4.69318 16.0429 6.49547 16.8569 8.37473 16.8569C10.254 16.8569 12.0563 16.0429 13.3851 14.594C14.714 13.1451 15.4605 11.1799 15.4605 9.13082C15.4605 7.08173 14.714 5.11658 13.3851 3.66766C12.0563 2.21874 10.254 1.40474 8.37473 1.40474Z" fill="black"/>
</svg>
