<svg width="26" height="24" viewBox="0 0 26 24" fill="none" xmlns="http://www.w3.org/2000/svg">
<path d="M19.5 7.30435C19.5 11.0826 16.57 14.1087 13 14.1087C9.42999 14.1087 6.5 11.0826 6.5 7.30435C6.5 3.52614 9.42999 0.5 13 0.5C16.57 0.5 19.5 3.52614 19.5 7.30435Z" stroke="black"/>
<path fill-rule="evenodd" clip-rule="evenodd" d="M24.9634 24C24.9878 23.8262 25 23.6522 25 23.4782C25 21.8047 23.8682 20.1205 21.6766 18.8011C19.5044 17.4934 16.4392 16.6522 13 16.6522C9.56082 16.6522 6.49557 17.4934 4.32337 18.8011C2.13178 20.1205 1 21.8047 1 23.4782C1 23.6522 1.01223 23.8262 1.0366 24H0.0284321C0.0095766 23.8275 0 23.6536 0 23.4782C0 19.156 5.8203 15.6522 13 15.6522C20.1797 15.6522 26 19.156 26 23.4782C26 23.6536 25.9904 23.8275 25.9716 24H24.9634Z" fill="black"/>
<line x1="25" y1="23.4565" y2="23.4565" stroke="black"/>
</svg>
